<?xml version="1.0" standalone="no"?>
<!DOCTYPE svg PUBLIC "-//W3C//DTD SVG 20010904//EN"
 "http://www.w3.org/TR/2001/REC-SVG-20010904/DTD/svg10.dtd">
<svg version="1.0" xmlns="http://www.w3.org/2000/svg"
 width="1730.000000pt" height="1730.000000pt" viewBox="0 0 1730.000000 1730.000000"
 preserveAspectRatio="xMidYMid meet">
<metadata>
Created by potrace 1.11, written by Peter Selinger 2001-2013
</metadata>
<g transform="translate(0.000000,1730.000000) scale(0.100000,-0.100000)"
fill="#000000" stroke="none">
<path d="M3408 13334 c-122 -28 -189 -85 -207 -176 -23 -117 7 -211 123 -390
29 -46 67 -110 84 -143 94 -188 155 -516 177 -950 3 -60 8 -144 10 -185 2 -41
7 -181 11 -311 l7 -237 -29 -6 c-34 -6 -152 -22 -539 -71 -154 -20 -298 -38
-320 -41 -22 -2 -58 -7 -80 -10 -22 -2 -56 -6 -75 -9 -19 -3 -53 -7 -75 -9
-38 -5 -70 -9 -160 -20 -35 -5 -98 -13 -250 -31 -22 -3 -147 -19 -278 -35
l-238 -30 -77 25 c-322 103 -599 143 -714 104 -84 -28 -132 -92 -144 -191 -11
-97 20 -171 160 -387 279 -426 356 -600 430 -971 34 -168 70 -426 91 -650 3
-36 8 -81 10 -100 2 -19 7 -64 10 -100 3 -36 8 -81 10 -100 2 -19 7 -66 10
-105 3 -38 8 -77 10 -85 2 -8 6 -42 10 -75 31 -292 132 -463 333 -562 149 -74
259 -42 349 100 34 54 68 155 83 247 7 41 18 80 24 86 7 8 69 15 161 19 83 3
175 8 205 10 30 3 118 9 195 15 77 6 160 12 185 15 25 2 77 7 115 10 65 5 108
9 210 19 22 3 69 7 105 11 36 3 81 8 100 10 19 2 70 7 114 11 l79 6 -7 -458
c-9 -618 -16 -1012 -22 -1169 -3 -71 -7 -589 -9 -1150 -4 -1103 -3 -1130 50
-1351 43 -180 103 -282 190 -323 54 -25 86 -26 151 -4 92 31 185 149 240 306
48 137 82 344 129 802 3 28 7 70 10 95 5 44 9 92 20 220 18 214 23 280 30 385
3 50 8 115 10 145 7 98 21 349 30 530 3 69 8 168 10 220 13 265 22 677 31
1335 3 281 7 511 9 513 3 4 105 18 190 26 33 4 78 9 100 11 22 2 69 7 105 10
36 2 112 9 170 15 58 5 139 12 180 15 41 3 102 7 135 10 138 10 419 23 660 30
593 17 669 20 727 36 54 14 129 68 161 117 25 37 28 51 28 116 0 94 -20 152
-87 251 -30 44 -54 92 -54 105 0 112 498 845 770 1134 31 33 110 95 181 142
69 46 143 102 164 125 51 56 86 136 90 205 5 100 -24 161 -127 263 -205 205
-738 503 -1075 603 -62 18 -101 23 -193 22 -100 -1 -137 -6 -280 -42 -202 -50
-231 -55 -445 -87 -93 -14 -181 -28 -195 -30 -14 -2 -95 -13 -180 -25 -85 -12
-166 -23 -180 -25 -28 -4 -169 -24 -215 -30 -16 -2 -68 -9 -115 -15 -47 -6
-101 -13 -120 -16 -96 -14 -365 -42 -369 -39 -4 5 -1 353 4 470 7 164 17 343
20 370 2 17 7 63 10 104 9 116 35 289 55 371 11 41 30 118 44 170 18 71 24
118 23 186 -2 82 -5 97 -40 166 -85 173 -269 277 -653 372 -287 71 -462 89
-586 60z m2778 -2792 c99 -31 109 -54 107 -257 -1 -188 -17 -304 -74 -532
-112 -453 -216 -657 -371 -728 -51 -23 -219 -67 -303 -80 -22 -3 -67 -10 -100
-15 -100 -15 -104 -15 -335 -45 -19 -3 -111 -14 -205 -25 -93 -11 -186 -22
-205 -25 -19 -2 -62 -7 -95 -11 -33 -3 -68 -8 -77 -10 -10 -1 -19 3 -19 9 -2
22 3 1041 6 1157 2 63 4 188 5 277 1 90 4 165 8 167 4 2 36 7 72 10 36 4 99
11 140 16 105 13 154 18 235 25 39 4 81 8 95 10 14 2 57 7 95 10 39 3 81 8 95
10 14 2 59 7 100 10 41 3 86 8 100 10 14 2 59 7 100 11 41 3 107 10 145 14 94
9 442 4 481 -8z m-2582 -241 c12 -18 17 -239 22 -896 3 -374 2 -685 -3 -691
-7 -9 -181 -35 -398 -59 -22 -2 -96 -11 -165 -19 -69 -8 -156 -18 -195 -21
-38 -4 -77 -8 -85 -10 -8 -2 -44 -6 -80 -10 -36 -3 -76 -8 -90 -10 -14 -2 -54
-7 -90 -10 -69 -7 -120 -12 -185 -20 -22 -2 -70 -7 -107 -10 l-66 -6 -7 78
c-3 43 -8 98 -10 123 -3 25 -7 81 -10 125 -3 44 -8 100 -10 125 -22 219 -36
361 -40 390 -3 19 -12 89 -20 155 -19 140 -23 171 -35 245 -5 30 -12 75 -15
100 -4 24 -8 47 -10 50 -2 3 -7 38 -10 77 l-7 71 53 11 c30 6 70 13 89 16 31
6 1070 154 1190 170 25 3 83 12 130 19 105 17 147 19 154 7z"/>
<path d="M11307 12894 c-1 -1 -36 -4 -77 -7 -158 -11 -298 -67 -342 -137 -101
-158 93 -377 816 -919 294 -220 408 -291 553 -342 215 -76 438 -47 556 72 129
131 161 445 67 663 -50 118 -172 261 -305 361 -177 132 -482 248 -740 281 -22
3 -46 7 -54 10 -18 6 -467 23 -474 18z"/>
<path d="M14238 11435 c-2 -1 -37 -6 -77 -9 -72 -7 -179 -27 -326 -61 -80 -19
-264 -73 -510 -150 -700 -220 -1877 -508 -2916 -715 -265 -53 -676 -125 -774
-135 -33 -3 -76 -8 -95 -10 -39 -4 -165 -12 -345 -20 -242 -12 -381 -42 -445
-97 -49 -42 -60 -69 -60 -147 0 -67 4 -83 28 -122 59 -91 190 -183 363 -254
158 -64 275 -87 457 -90 206 -3 279 9 1082 179 803 170 1228 252 1240 240 20
-21 29 -162 25 -419 -2 -148 -6 -286 -8 -305 -3 -19 -8 -64 -12 -100 -13 -143
-37 -278 -101 -580 -19 -90 -101 -360 -110 -360 -7 0 -355 359 -527 545 -213
229 -425 439 -501 497 -130 98 -304 176 -439 196 -205 32 -554 -54 -672 -164
-36 -33 -56 -74 -62 -123 -5 -41 -1 -57 22 -99 47 -87 153 -163 430 -307 156
-81 294 -168 378 -239 187 -156 306 -267 551 -512 167 -166 459 -471 464 -483
11 -29 -333 -367 -508 -501 -335 -255 -794 -496 -1289 -676 -342 -125 -650
-212 -1133 -320 -344 -76 -398 -95 -476 -168 -45 -41 -62 -76 -66 -133 -5 -67
9 -107 50 -148 54 -54 148 -86 298 -100 82 -8 424 -9 516 -1 36 3 106 8 155
11 263 17 593 70 880 141 276 67 594 174 820 274 22 10 74 32 115 50 182 79
507 263 677 382 71 50 282 214 293 227 3 3 23 21 45 40 22 19 83 74 135 122
52 49 99 89 103 90 5 0 122 -111 260 -248 226 -223 374 -363 522 -494 28 -24
52 -46 55 -49 42 -45 496 -411 695 -561 462 -347 748 -540 879 -592 127 -51
175 -57 443 -57 136 0 264 2 283 4 19 2 80 7 135 10 55 4 114 9 130 11 17 2
73 9 125 15 136 16 143 17 370 49 164 24 613 96 715 116 198 37 349 70 394 87
146 54 237 162 224 264 -20 157 -163 240 -533 310 -546 105 -838 167 -1187
253 -774 191 -1255 364 -1696 610 -93 53 -383 230 -412 253 -5 4 -75 54 -155
110 -182 128 -544 408 -585 452 -6 6 -39 36 -75 66 -36 30 -79 70 -97 89 -32
33 -32 33 -17 70 143 337 259 689 374 1141 23 91 58 226 77 300 57 225 101
352 150 436 74 126 95 187 95 274 1 41 -6 92 -13 112 -27 73 -115 161 -268
269 -24 17 -39 35 -35 39 5 5 149 33 319 63 588 104 950 157 1190 172 90 6
143 11 265 26 129 15 146 18 270 46 262 57 445 160 513 287 33 63 31 183 -5
251 -99 189 -363 327 -698 365 -82 9 -373 13 -382 5z"/>
</g>
</svg>
